<?xml version="1.0" standalone="no"?>
<!DOCTYPE svg PUBLIC "-//W3C//DTD SVG 20010904//EN"
 "http://www.w3.org/TR/2001/REC-SVG-20010904/DTD/svg10.dtd">
<svg version="1.0" xmlns="http://www.w3.org/2000/svg"
 width="560.000000pt" height="560.000000pt" viewBox="0 0 560.000000 560.000000"
 preserveAspectRatio="xMidYMid meet">
<metadata>
Created by potrace 1.11, written by Peter Selinger 2001-2013
</metadata>
<g transform="translate(0.000000,560.000000) scale(0.100000,-0.100000)"
fill="#000000" stroke="none">
<path d="M2747 3874 c-1 -1 -40 -4 -87 -8 -218 -16 -441 -92 -615 -209 -33
-23 -65 -46 -71 -51 -6 -6 -37 -36 -70 -66 -144 -135 -259 -350 -289 -540 -17
-109 -20 -141 -19 -203 7 -298 110 -544 314 -747 215 -215 482 -318 845 -325
614 -11 1081 298 1216 805 14 52 14 55 25 140 37 313 -66 624 -282 850 -177
185 -440 306 -754 346 -44 5 -208 12 -213 8z m178 -138 c114 -34 236 -94 321
-157 345 -258 477 -701 332 -1109 -85 -239 -279 -449 -512 -555 -172 -77 -399
-103 -587 -66 -419 83 -732 427 -777 855 -52 490 280 945 763 1047 59 13 119
16 225 14 124 -2 158 -6 235 -29z"/>
</g>
</svg>
